<svg width="267" height="58" viewBox="0 0 267 58" fill="none" xmlns="http://www.w3.org/2000/svg">
<path d="M59.4659 22.6819L59.3856 22.4695L51.277 1.49662C51.1129 1.08481 50.8209 0.735475 50.4432 0.499176C50.1614 0.320307 49.8413 0.209386 49.5085 0.175301C49.1757 0.141216 48.8395 0.184918 48.5267 0.302901C48.214 0.420885 47.9335 0.60987 47.7078 0.854708C47.482 1.09955 47.3172 1.39343 47.2266 1.7128L41.7533 18.328H19.5886L14.1153 1.7128C14.024 1.39391 13.8588 1.10058 13.6329 0.856207C13.407 0.611838 13.1267 0.423188 12.8142 0.3053C12.5018 0.187413 12.1659 0.14355 11.8333 0.177211C11.5007 0.210872 11.1806 0.321124 10.8987 0.499176C10.521 0.735475 10.229 1.08481 10.0648 1.49662L1.9601 22.4733L1.87595 22.6819C0.709104 25.7057 0.565352 29.0237 1.46637 32.1357C2.36738 35.2476 4.26432 37.9847 6.87114 39.9342L6.90174 39.957L6.97058 40.0101L19.3056 49.1767L25.4252 53.7619L29.1429 56.5495C29.5791 56.8762 30.1109 57.0529 30.6576 57.0529C31.2042 57.0529 31.736 56.8762 32.1722 56.5495L35.8899 53.7619L42.0096 49.1767L54.4325 39.957L54.4669 39.9305C57.0736 37.9816 58.9708 35.2454 59.8724 32.1343C60.7741 29.0231 60.6315 25.7056 59.4659 22.6819Z" fill="#141316"/>
<path d="M108.011 21.5954H116.724C115.271 12.4098 107.25 6.01172 96.8121 6.01172C84.4618 6.01172 75.1943 15.0153 75.1943 30.0945C75.1943 44.9045 84.0449 54.09 97.0645 54.09C108.749 54.09 117.114 46.6377 117.114 34.5735V28.9529H97.9634V35.5785H108.841C108.703 42.2535 104.209 46.4784 97.1104 46.4784C89.2084 46.4784 83.7925 40.6075 83.7925 30.0035C83.7925 19.4677 89.3002 13.6196 96.9268 13.6196C102.618 13.6196 106.512 16.6347 108.011 21.5954Z" fill="#141316"/>
<path d="M122.867 53.4535H131.209V18.3723H122.867V53.4535ZM127.075 12.7972C129.725 12.7972 131.89 10.7833 131.89 8.31818C131.89 5.85301 129.725 3.81641 127.075 3.81641C124.424 3.81641 122.236 5.82647 122.236 8.31818C122.236 10.8099 124.386 12.7972 127.059 12.7972H127.075Z" fill="#141316"/>
<path d="M156.195 18.3685H149.211V9.94141H140.869V18.3685H135.847V24.7665H140.869V44.2831C140.823 50.8859 145.665 54.1437 151.93 53.9503C153.599 53.9174 155.254 53.6401 156.841 53.1273L155.433 46.6572C154.636 46.8623 153.817 46.9706 152.993 46.9796C150.893 46.9796 149.211 46.2476 149.211 42.9102V24.7476H156.195V18.3685Z" fill="#141316"/>
<path d="M162.659 53.4487H191.995V46.3414H171.211V6.64844H162.659V53.4487Z" fill="#141316"/>
<path d="M207.961 54.159C213.515 54.159 216.831 51.5763 218.353 48.6295H218.629V53.4498H226.661V29.9587C226.661 20.6821 219.034 17.8945 212.279 17.8945C204.836 17.8945 199.122 21.1827 197.279 27.5807L205.07 28.6806C205.896 26.2799 208.248 24.2243 212.337 24.2243C216.211 24.2243 218.33 26.1889 218.33 29.6401V29.7766C218.33 32.1508 215.817 32.2683 209.571 32.9282C202.706 33.6602 196.139 35.693 196.139 43.6005C196.116 50.503 201.207 54.159 207.961 54.159ZM210.704 48.0909C207.223 48.0909 204.733 46.5132 204.733 43.4754C204.733 40.2972 207.521 38.9736 211.235 38.4464C213.427 38.1506 217.806 37.6007 218.885 36.736V40.8699C218.908 44.7648 215.726 48.0795 210.704 48.0795V48.0909Z" fill="#141316"/>
<path d="M232.812 53.4487H241.017V47.9191H241.499C242.814 50.4791 245.557 54.0669 251.642 54.0669C259.984 54.0669 266.23 47.5057 266.23 35.946C266.23 24.2459 259.8 17.8934 251.619 17.8934C245.373 17.8934 242.768 21.6177 241.499 24.1549H241.147V6.64844H232.812V53.4487ZM240.994 35.9005C240.994 29.0739 243.943 24.6783 249.313 24.6783C254.866 24.6783 257.727 29.3621 257.727 35.9005C257.727 42.4389 254.824 47.2782 249.313 47.2782C243.989 47.2782 240.994 42.7081 240.994 35.9005Z" fill="#141316"/>
</svg>
