<svg width="163" height="20" viewBox="0 0 163 20" fill="none" xmlns="http://www.w3.org/2000/svg">
<g clip-path="url(#clip0_1291_10004)">
<g clip-path="url(#clip1_1291_10004)">
<path d="M37.8652 7.39449H24.1271L23.6181 7.77514V19.9966H27.4212V15.4136L27.7842 15.0883H37.8657C40.4112 15.0883 41.6046 14.4034 41.6046 12.6462V9.84005C41.6041 8.07985 40.4112 7.39449 37.8652 7.39449ZM37.8652 11.9128C37.8652 12.7407 37.3175 12.9127 36.1242 12.9127H27.8258L27.4207 12.5188V9.90079L27.7837 9.56864H36.1242C37.3175 9.56864 37.8652 9.73864 37.8652 10.5705V11.9128Z" fill="#020504"/>
<path d="M48.5395 9.70626L51.812 14.5009L51.6307 14.9653H44.3935L42.5461 17.2379H53.3189L54.0655 17.6925L55.738 19.9995H60.0902L50.5505 7.23816" fill="#020504"/>
<path d="M91.8148 17.5172V14.1252L92.2063 13.7871H99.4871V11.6272H87.9476V19.999H104.97V17.8494H92.2234" fill="#020504"/>
<path d="M105.149 7.39449H87.9476V9.7695H105.149V7.39449Z" fill="#020504"/>
<path d="M68.7619 9.64364H82.6201C82.4065 7.88149 81.3131 7.39257 78.5393 7.39257H68.6145C65.4845 7.39257 64.4861 8.00347 64.4861 10.3721V17.0176C64.4861 19.3887 65.4845 19.9996 68.6145 19.9996H78.5393C81.3537 19.9996 82.4315 19.471 82.505 17.6432H68.7619L68.3544 17.2596V9.90035" fill="#020504"/>
<path d="M14.37 12.3052H4.28843L3.99155 11.9784V9.82192L4.28696 9.59363H17.8777L18.0633 9.1395C17.6004 7.94856 16.4016 7.39302 14.1755 7.39302H4.73472C1.60674 7.39302 0.606862 8.00392 0.606862 10.3726V11.7658C0.606862 14.1374 1.60674 14.7473 4.73472 14.7473H14.7938L15.1097 15.0246V17.2791L14.8521 17.6309H3.34587V17.6201H0.33203C0.33203 17.6201 -0.0128562 17.793 0.00037097 17.8739C0.257566 19.5307 1.38629 20 4.08855 20H14.37C17.4975 20 18.5273 19.3891 18.5273 17.018V15.2823C18.5273 12.9151 17.4975 12.3052 14.37 12.3052Z" fill="#020504"/>
<path d="M115.97 7.34258H110.312L110.004 7.92702L116.289 12.508C117.479 11.8188 118.774 11.1202 120.183 10.4309" fill="#020504"/>
<path d="M121.04 15.9721L126.564 20H132.292L132.529 19.4665L124.281 13.4296C123.186 14.2335 122.103 15.0825 121.04 15.9721Z" fill="#020504"/>
<path d="M115.128 19.9907H110.008L109.576 19.3132C113.057 15.952 128.627 1.54366 162.471 0C162.471 0 134.064 0.958238 115.128 19.9907Z" fill="#020504"/>
</g>
</g>
<defs>
<clipPath id="clip0_1291_10004">
<rect width="162.471" height="20" fill="white"/>
</clipPath>
<clipPath id="clip1_1291_10004">
<rect width="162.471" height="20" fill="white"/>
</clipPath>
</defs>
</svg>
